# xmcd
#
# Track frame offsets: 
#        150
#        15734
#        33176
#        51496
#        67622
#        86165
#        106203
#        124208
#        143834
#        165567
#        186069
#        204775
#        217653
#        238623
#        254848
#        275322
#
# Disc length: 3864 seconds
#
# Revision: 8
# Processed by: cddbd v1.5.2PL0 Copyright (c) Steve Scherf et al.
# Submitted via: ExactAudioCopy v1.0b3
#
DISCID=d80f1610
DTITLE=Helene Fischer - Fuer einen Tag
DYEAR=2011
DGENRE=Schlager
TTITLE0=Villa in der Schlossallee
TTITLE1=Du kennst mich doch
TTITLE2=Nur wer den Wahnsinn liebt
TTITLE3=Waer' heut' mein letzter Tag
TTITLE4=Copilot
TTITLE5=Fuer einen Tag
TTITLE6=Phaenomen
TTITLE7=Lass diese Nacht nie mehr enden
TTITLE8=Die Hoelle morgen frueh
TTITLE9=Ich will spueren, dass ich lebe
TTITLE10=Vielleicht bin ich viel staerker als Du denkst
TTITLE11=Geradeaus
TTITLE12=Sehnsucht
TTITLE13=Ich lebe jetzt
TTITLE14=Allein im Licht
TTITLE15=Michael Bolton and Helene Fischer - Make you feel my love
EXTD=YEAR: 2011
EXTT0=
EXTT1=
EXTT2=
EXTT3=
EXTT4=
EXTT5=
EXTT6=
EXTT7=
EXTT8=
EXTT9=
EXTT10=
EXTT11=
EXTT12=
EXTT13=
EXTT14=
EXTT15=
PLAYORDER=
